<svg width="3203.489" height="752.91" xmlns="http://www.w3.org/2000/svg" xmlns:xlink="http://www.w3.org/1999/xlink"><svg xmlns="http://www.w3.org/2000/svg"><path d="M67.954 15.702q.754.754 1.17 1.755t.416 2.145q0 1.17-.442 2.197t-1.209 1.794-1.794 1.21-2.197.441h-9.1v-3.64h1.82v-10.92h-1.82v-3.64h9.1q1.092 0 2.054.416t1.677 1.131 1.131 1.677.416 2.054q0 .962-.325 1.82t-.897 1.56zm-4.056 7.904q.832 0 1.56-.312t1.274-.858.858-1.274.312-1.56q0-1.612-1.118-2.782l-.104-.104q-.286-.286-.559-.442t-.507-.286q-.286-.104-.52-.208.26-.13.546-.26.234-.13.468-.299t.442-.403l.156-.182q.39-.494.611-1.079t.221-1.235q0-.754-.286-1.417t-.78-1.157-1.157-.78-1.417-.286h-7.462v.364h1.82v14.196h-1.82v.364h7.462zm0-7.644q.754 0 1.417.286t1.157.78.78 1.157.286 1.417-.286 1.417-.78 1.157-1.157.78-1.417.286H58.62v-7.28h5.278zm0 5.642q.832 0 1.417-.585t.585-1.417-.585-1.417-1.417-.585h-3.64v4.004h3.64zm3.276-9.282q0 .676-.26 1.274t-.702 1.04-1.04.702-1.274.26H58.62V9.046h5.278q.676 0 1.274.26t1.04.702.702 1.04.26 1.274zm-6.916 1.638h3.64q.676 0 1.157-.48t.481-1.158-.481-1.157-1.157-.48h-3.64v3.275zm19.812-1.456v-1.82h-3.64v3.64h3.64v3.64h-3.64v3.64h3.64v-1.82h3.64v5.46H70.97v-3.64h1.82v-10.92h-1.82v-3.64h12.74v5.46h-3.64zm1.638-3.458v1.82h.364V8.682h-9.464v.364h1.82v14.196h-1.82v.364h9.464v-2.184h-.364v1.82h-6.916v-6.916h3.64v-.364h-3.64V9.046h6.916zm21.658-2.002v3.64h-1.82v14.56h-3.64l-7.098-11.336v7.696h1.82v3.64h-7.28v-3.64h1.82v-10.92h-1.82v-3.64h5.46l7.098 11.336v-7.696h-1.82v-3.64h7.28zm-1.638 1.638h-4.004v.364h1.82v14.196h-.52l-9.126-14.56h-2.912v.364h1.82v14.196h-1.82v.364h4.004v-.364h-1.82V9.046h.52l9.126 14.56h1.092V9.046h1.82v-.364zm16.016-1.638v3.64h-1.82v9.1q0 1.144-.429 2.132t-1.17 1.73-1.742 1.17-2.119.428q-1.144 0-2.132-.429t-1.729-1.17-1.17-1.729-.429-2.132v-1.82h3.64v1.82q0 .754.533 1.287t1.287.533 1.287-.533.533-1.287v-9.1h-1.82v-3.64h7.28zm-1.638 1.638h-4.004v.364h1.82v10.738q0 .702-.273 1.34t-.741 1.104-1.105.741-1.339.273-1.339-.273-1.105-.74-.741-1.106-.273-1.339v-.182h-.364v.182q0 .78.299 1.482t.819 1.222 1.222.82 1.482.298 1.482-.299 1.222-.819.819-1.222.299-1.482V9.046h1.82v-.364zm10.608 0l-4.368 14.56h-1.326v.364h4.004v-.364h-2.288l1.534-5.096h8.06l1.534 5.096h-2.288v.364h4.004v-.364h-1.352l-4.368-14.56h-3.146zm.286.364h2.6l2.626 8.736h-7.852zm8.45 12.558h1.768v3.64h-7.28v-3.64h1.716l-.546-1.82h-5.616l-.546 1.82h1.716v3.64h-7.28v-3.64h1.768l4.368-14.56h5.564zm-5.434-5.46l-1.638-5.46h-.156l-1.638 5.46h3.432zm25.194-5.46v10.92h1.82v3.64h-7.28v-3.64h1.82v-7.826l-3.64 5.772-3.64-5.772v7.826h1.82v3.64h-7.28v-3.64h1.82v-10.92h-1.82v-3.64h5.512l3.588 5.694 3.588-5.694h5.512v3.64h-1.82zm-1.638 12.558V9.046h1.82v-.364h-2.964l-4.498 7.124-4.498-7.124h-2.964v.364h1.82v14.196h-1.82v.364h4.004v-.364h-1.82V9.046h.572l4.706 7.436 4.706-7.436h.572v14.196h-1.82v.364h4.004v-.364h-1.82zm10.53-12.558v10.92h1.82v3.64h-7.28v-3.64h1.82v-10.92h-1.82v-3.64h7.28v3.64h-1.82zm-1.638 12.558V9.046h1.82v-.364h-4.004v.364h1.82v14.196h-1.82v.364h4.004v-.364h-1.82zm23.114-16.198v3.64h-1.82v14.56h-3.64l-7.098-11.336v7.696h1.82v3.64h-7.28v-3.64h1.82v-10.92h-1.82v-3.64h5.46l7.098 11.336v-7.696h-1.82v-3.64h7.28zm-1.638 1.638h-4.004v.364h1.82v14.196h-.52l-9.126-14.56h-2.912v.364h1.82v14.196h-1.82v.364h4.004v-.364h-1.82V9.046h.52l9.126 14.56h1.092V9.046h1.82v-.364zm17.654 0q-.78 0-1.482.3t-1.222.818-.819 1.222-.299 1.482v7.28q0 .78.299 1.482t.819 1.222 1.222.82 1.482.298h3.64q.702 0 1.326-.234t1.118-.65.832-.975.468-1.235h-.364q-.26 1.17-1.196 1.95t-2.184.78h-3.64q-.702 0-1.339-.273t-1.105-.74-.741-1.106-.273-1.339v-7.28q0-.702.273-1.339t.741-1.105 1.105-.74 1.339-.274h3.64q1.248 0 2.184.78t1.196 1.95h.364q-.13-.65-.468-1.222t-.832-.988-1.118-.65-1.326-.234h-3.64zm3.64-1.638q1.118 0 2.119.43t1.742 1.17 1.17 1.741.429 2.12v.91h-3.64v-.91q0-.755-.533-1.288t-1.287-.533h-3.64q-.754 0-1.287.533t-.533 1.287v7.28q0 .754.533 1.287t1.287.533h3.64q.754 0 1.287-.533t.533-1.287v-.91h3.64v.91q0 1.144-.429 2.132t-1.17 1.73-1.742 1.17-2.119.428h-3.64q-1.144 0-2.132-.429t-1.729-1.17-1.17-1.729-.429-2.132v-7.28q0-1.118.429-2.119t1.17-1.742 1.729-1.17 2.132-.429h3.64zm12.376 1.638q-.78 0-1.482.3t-1.222.818-.819 1.222-.299 1.482v7.28q0 .78.299 1.482t.819 1.222 1.222.82 1.482.298h3.64q.78 0 1.482-.299t1.222-.819.819-1.222.299-1.482v-7.28q0-.78-.299-1.482t-.819-1.222-1.222-.819-1.482-.299h-3.64zm0 14.56q-.702 0-1.339-.273t-1.105-.74-.741-1.106-.273-1.339v-7.28q0-.702.273-1.339t.741-1.105 1.105-.74 1.339-.274h3.64q.702 0 1.339.273t1.105.741.741 1.105.273 1.34v7.28q0 .701-.273 1.338t-.741 1.105-1.105.741-1.339.273h-3.64zm3.64-16.198q1.118 0 2.119.43t1.742 1.17 1.17 1.741.429 2.12v7.28q0 1.143-.429 2.131t-1.17 1.73-1.742 1.17-2.119.428h-3.64q-1.144 0-2.132-.429t-1.729-1.17-1.17-1.729-.429-2.132v-7.28q0-1.118.429-2.119t1.17-1.742 1.729-1.17 2.132-.429h3.64zm0 14.56q.754 0 1.287-.533t.533-1.287v-7.28q0-.754-.533-1.287t-1.287-.533h-3.64q-.754 0-1.287.533t-.533 1.287v7.28q0 .754.533 1.287t1.287.533h3.64zm21.632-14.56v5.46h-3.64v-1.82h-1.82v10.92h1.82v3.64h-7.28v-3.64h1.82v-10.92h-1.82v1.82h-3.64v-5.46h14.56zm-1.638 1.638H229.96v2.184h.364v-1.82h5.096v14.196h-1.82v.364h4.004v-.364h-1.82V9.046h5.096v1.82h.364V8.682zm17.81-1.638v5.46h-3.64v-1.82h-1.82v10.92h1.82v3.64h-7.28v-3.64h1.82v-10.92h-1.82v1.82h-3.64v-5.46h14.56zm-1.638 1.638h-11.284v2.184h.364v-1.82h5.096v14.196h-1.82v.364h4.004v-.364h-1.82V9.046h5.096v1.82h.364V8.682zm8.71 0q-.78 0-1.482.3t-1.222.818-.819 1.222-.299 1.482v7.28q0 .78.299 1.482t.819 1.222 1.222.82 1.482.298h3.64q.78 0 1.482-.299t1.222-.819.819-1.222.299-1.482v-7.28q0-.78-.299-1.482T272.47 9.8t-1.222-.819-1.482-.299h-3.64zm0 14.56q-.702 0-1.339-.273t-1.105-.74-.741-1.106-.273-1.339v-7.28q0-.702.273-1.339t.741-1.105 1.105-.74 1.339-.274h3.64q.702 0 1.339.273t1.105.741.741 1.105.273 1.34v7.28q0 .701-.273 1.338t-.741 1.105-1.105.741-1.339.273h-3.64zm3.64-16.198q1.118 0 2.119.43t1.742 1.17 1.17 1.741.429 2.12v7.28q0 1.143-.429 2.131t-1.17 1.73-1.742 1.17-2.119.428h-3.64q-1.144 0-2.132-.429t-1.729-1.17-1.17-1.729-.429-2.132v-7.28q0-1.118.429-2.119t1.17-1.742 1.729-1.17 2.132-.429h3.64zm0 14.56q.754 0 1.287-.533t.533-1.287v-7.28q0-.754-.533-1.287t-1.287-.533h-3.64q-.754 0-1.287.533t-.533 1.287v7.28q0 .754.533 1.287t1.287.533h3.64zm25.09-14.56v3.64h-1.82v14.56h-3.64l-7.098-11.336v7.696h1.82v3.64h-7.28v-3.64h1.82v-10.92h-1.82v-3.64h5.46l7.098 11.336v-7.696h-1.82v-3.64h7.28zm-1.638 1.638h-4.004v.364h1.82v14.196h-.52l-9.126-14.56h-2.912v.364h1.82v14.196h-1.82v.364h4.004v-.364h-1.82V9.046h.52l9.126 14.56h1.092V9.046h1.82v-.364z" xmlns:name="mainText_mainfill"/><path d="M54.798 35.632h4.13q.763 0 1.451.198t1.282.557 1.076.86.824 1.117.524 1.322.183 1.469q0 .776-.183 1.486t-.524 1.333-.823 1.132-1.077.872-1.282.56-1.45.198h-4.131v-1.26h1.055v-8.577h-1.055v-1.267zm2.49 1.268v8.576h1.729q.769 0 1.446-.336t1.183-.92.798-1.37.293-1.695q0-.893-.293-1.67t-.798-1.351-1.183-.905-1.446-.33h-1.729zm12.301-1.268h4.49q.747 0 1.373.194t1.084.572.71.94.253 1.297q0 .608-.249 1.146t-.703.941-1.087.638-1.41.234h-1.97v3.882h1.113v1.26h-3.604v-1.26h1.055v-8.577h-1.055v-1.267zm2.49 1.268v3.493h2q.417 0 .765-.113t.6-.333.396-.55.143-.761q0-.82-.498-1.278t-1.59-.458H72.08zm14.198-1.656h1.275l-4.395 11.704h-1.274zm6.347.388h7.954v3.142h-1.501V36.9h-3.963v3.552h3.333v1.26h-3.333v3.765h3.963V43.6h1.501v3.135h-7.954v-1.26h1.055v-8.577h-1.055v-1.267zm13.173 0h4.13q.762 0 1.45.198t1.282.557 1.077.86.824 1.117.524 1.322.183 1.469q0 .776-.183 1.486t-.524 1.333-.824 1.132-1.077.872-1.281.56-1.45.198h-4.131v-1.26h1.054v-8.577h-1.054v-1.267zm2.49 1.268v8.576h1.728q.77 0 1.447-.336t1.183-.92.798-1.37.293-1.695q0-.893-.293-1.67t-.798-1.351-1.183-.905-1.447-.33h-1.728zm12.3-1.268h3.546V36.9h-1.055v8.577h1.055v1.26h-3.545v-1.26h1.054V36.9h-1.054v-1.267zm11.665 9.844h1.018v-8.642h-2.534v1.728h-1.502v-2.93h9.902v2.93h-1.501v-1.728h-2.93v8.642h1.143v1.26h-3.596v-1.26zm16.79 1.48q-1.15 0-2.102-.429t-1.699-1.22-1.135-1.874-.388-2.249q0-1.2.392-2.255t1.098-1.835 1.685-1.23 2.15-.451q1.179 0 2.16.45t1.685 1.23 1.091 1.836.388 2.255-.392 2.253-1.098 1.834-1.685 1.234-2.15.45zm0-1.362q.872 0 1.579-.36t1.205-.962.769-1.403.27-1.685q0-.908-.296-1.754t-.828-1.432-1.234-.904-1.465-.319q-.871 0-1.582.359t-1.208.963-.77 1.406-.27 1.681q0 1.026.3 1.828t.795 1.333 1.179.89 1.556.359zm10.646-9.962h4.622q.74 0 1.366.194t1.084.572.714.94.256 1.297q0 .418-.15.824t-.417.754-.634.62-.798.417q.183.08.37.23t.351.367.3.49.216.59l.616 2.417h.96l.014 1.392h-2.16l-.828-3.377q-.227-.908-.693-1.337t-1.27-.428h-1.429v3.882h1.114v1.26h-3.604v-1.26h1.055v-8.577h-1.055v-1.267zm2.49 1.268v3.493h2.132q.417 0 .765-.11t.6-.329.396-.546.143-.758q0-.827-.498-1.289t-1.582-.461h-1.956zm15.56-1.656h1.275l-4.394 11.704h-1.275zm6.347.388h4.49q.747 0 1.373.194t1.084.572.71.94.253 1.297q0 .608-.249 1.146t-.703.941-1.088.638-1.41.234h-1.97v3.882h1.114v1.26h-3.604v-1.26h1.055v-8.577h-1.055v-1.267zm2.49 1.268v3.493h2q.417 0 .765-.113t.6-.333.396-.55.143-.761q0-.82-.498-1.278t-1.59-.458h-1.816zm10.58-1.268h4.622q.74 0 1.366.194t1.084.572.714.94.256 1.297q0 .418-.15.824t-.417.754-.634.62-.798.417q.183.08.37.23t.351.367.3.49.216.59l.616 2.417h.96l.014 1.392h-2.16l-.828-3.377q-.227-.908-.693-1.337t-1.27-.428h-1.429v3.882h1.114v1.26h-3.604v-1.26h1.055v-8.577h-1.055v-1.267zm2.49 1.268v3.493h2.132q.417 0 .765-.11t.6-.329.396-.546.143-.758q0-.827-.498-1.289T201.6 36.9h-1.956zm16.747 10.056q-1.15 0-2.102-.429t-1.699-1.22-1.135-1.874-.388-2.249q0-1.2.391-2.255t1.099-1.835 1.685-1.23 2.15-.451q1.178 0 2.16.45t1.685 1.23 1.09 1.836.389 2.255-.392 2.253-1.098 1.834-1.685 1.234-2.15.45zm0-1.362q.872 0 1.579-.36t1.204-.962.77-1.403.27-1.685q0-.908-.296-1.754t-.828-1.432-1.234-.904-1.465-.319q-.871 0-1.582.359t-1.208.963-.77 1.406-.27 1.681q0 1.026.3 1.828t.795 1.333 1.179.89 1.556.359zm10.646-9.962h4.13q.763 0 1.451.198t1.282.557 1.076.86.824 1.117.524 1.322.183 1.469q0 .776-.183 1.486t-.524 1.333-.824 1.132-1.076.872-1.282.56-1.45.198h-4.131v-1.26h1.055v-8.577h-1.055v-1.267zm2.49 1.268v8.576h1.729q.769 0 1.446-.336t1.183-.92.798-1.37.293-1.695q0-.893-.293-1.67t-.798-1.351-1.183-.905-1.446-.33h-1.729zm12.081-1.268h3.597V36.9h-1.136v5.171q0 .93.21 1.586t.578 1.07.879.603 1.117.19q.63 0 1.157-.168t.904-.567.586-1.062.209-1.652V36.9h-1.201v-1.268h3.596V36.9h-.989v5.01q0 1.201-.333 2.131t-.912 1.56-1.362.956-1.685.326q-.879 0-1.644-.322t-1.333-.945-.894-1.52-.326-2.054V36.9h-1.018v-1.267zm23.207 2.93q-.49-.835-1.3-1.31t-1.805-.477q-.85 0-1.553.36t-1.205.962-.78 1.4-.278 1.673q0 1.04.308 1.842t.802 1.333 1.175.886 1.53.355q1.158 0 2.015-.56t1.465-1.842l1.289.608q-.278.79-.945 1.527t-1.644 1.186-2.165.45q-1.135 0-2.087-.428t-1.696-1.22-1.135-1.874-.392-2.263q0-1.187.392-2.241t1.099-1.835 1.684-1.23 2.12-.451q1.019 0 1.759.29t1.256.688.89.868h.776v1.303h-1.575zm6.925-2.93h7.954v3.142h-1.501V36.9h-3.962v3.552h3.332v1.26h-3.332v3.765h3.962V43.6h1.501v3.135h-7.954v-1.26h1.055v-8.577h-1.055v-1.267zm13.173 0h4.622q.74 0 1.366.194t1.084.572.714.94.256 1.297q0 .418-.15.824t-.418.754-.633.62-.799.417q.184.08.37.23t.352.367.3.49.216.59l.616 2.417h.959l.015 1.392h-2.161l-.828-3.377q-.227-.908-.692-1.337t-1.27-.428h-1.429v3.882h1.114v1.26h-3.604v-1.26h1.055v-8.577h-1.055v-1.267zm2.49 1.268v3.493h2.131q.418 0 .766-.11t.6-.329.396-.546.143-.758q0-.827-.498-1.289t-1.582-.461h-1.956z" xmlns:name="sloganText_mainfill"/><path d="M.054 40.446L0 31.104h.108H0l.162-9.288-.054-7.29h.108-.108V6.102h.108-.108L.27.216h.108V.162h7.884L22.032 0v.054l8.91 2.808-.054.054.054-.054 4.806 1.998v.054h.054l3.834 9.018-.054.054h.054l-1.188 6.858-.054-.054.054.108-5.022 5.292 3.888 3.078-.054.054h.108l2.052 5.13h-.108.108l.378 8.964h-.054l.054.054-5.076 7.182-.054-.054.054.054-8.424 2.862v.054L11.61 54 .324 53.784v-.108H.216l-.054-5.238-.108-7.992h.108-.108zm35.856-10.53l-.432-.54-5.832-.216 3.78 1.998zm-.162-.54l.324.486.864-.432zM.432 20.844l1.188 4.914 5.724.594zm.972 4.86l-1.026-4.32v4.212zm29.862 1.458l-1.566-.594-.918.054.54 2.268zm-1.134-.648l1.242.486.702-.594zm-16.848 5.994l.432 9.612 10.962-.27 2.052-7.236-6.75-2.052zM26.73 13.77l-1.35-.54 1.08 3.618zm-1.188-.648l1.188.432.054-.864zm10.098 4.104l-6.048-2.376-2.862 2.43zm-5.886-2.484l5.67 2.214-4.536-3.186zm-9.342 17.172l3.618-3.456-.594-1.404zm3.726-3.294l-3.78 3.618 4.59-1.728zm2.646-2.754l-.054-.054-2.646.918 1.89-.108zm-3.186.864l3.024-1.08-1.89-2.592zm0 .324l.594 1.296.81-.81zm.27-.108l1.296.486.594-.648zm2.214-.162l-.756.702 1.728.648.054-1.404zm1.242-.054l-.108 1.458 1.782.648-1.566-2.16zm-.216-.162l.054-.27-.27-.324-.648.648zM27 25.866l.162.162v-.27zm-.162-.27l.27-.108-2.268-2.646v.054zm-2.16-2.916l-.108-.162zm-.054.216l-1.35-1.836.216 5.346zm-4.698 9.45l3.24-5.238-9.612 5.184zm5.13-1.674l-4.806 1.782 6.426 1.998zm.162-.054l1.566 3.564.162-4.212zm-.108-.162l1.89-.648.054-1.512-1.89-.702-.918.918zm2.106-2.052l-.054 1.296 1.836-.648zm1.242-.594l-.648-1.134h-.162zm-.432-1.134l1.026 1.782-.432-1.836zm-.54-.162h.216l-.378-.702v.432zm-2.592-3.888l2.268 2.646-.702-7.506zm1.728-5.508l2.754-2.322-2.484-.972zm-1.89 5.346l1.566-4.806-3.024 3.078zm-1.674-1.62h-9.396l9.666 5.886zm.216 6.048l-9.882-5.994-.108 11.34zm3.888 3.024l-.216 4.212 2.16-4.914zm1.566-3.456l.594-.054-.648-.27zm-.162 0l-.108-.378-.972-.378.432.81zm-1.836-7.884l.594 6.75.81-.702zm-.108-1.134l1.674 7.02 7.56-7.074zm4.428-3.78l4.914 3.456-.378-7.29zm-.162-.108l4.374-3.672-6.48 2.16zm-.108.108l-2.214-1.566-1.566.54-.108 1.026 2.646 1.026zM27 12.42l1.35-.432-1.242-.918zm-.216.054l.108-1.242-1.35 1.674zm-.378 4.86l-1.242-4.158-2.43-1.134-9.396.108.054 8.532h9.72zm-12.96-5.4l9.126-.108L18.9 4.212zm-.216 8.64l-.054-8.424-7.668 1.782zm-.108 11.61l.108-11.232-5.508 5.508zm-5.778-5.67l-5.67-.594.864 3.564zm-.108.27L2.592 29.7l.54 2.268zm.378-.162l-4.32 5.454 9.72.216zM13.5 42.12l-.378-9.396-5.778 10.098zm-6.156.864l1.566 3.834 4.482-4.482zm1.404 3.996l-1.35-3.402.54 4.212zm4.752-4.482l-4.536 4.536 2.7 6.588zm11.07-.486l-10.692.27 6.804 5.508zm.108.162l-3.834 5.67 4.482-.432zm.162.054l.702 5.184 3.294-.324zm2.052-7.56l-1.998 7.128 10.26-4.158zm.432 0l7.83 2.808-2.052-2.862zm-.108-.162l5.778-.054-1.512-2.106zm-.162-.108l4.32-2.214-2.106-2.97zm2.484-5.076l1.998 2.808 1.674-.864zm1.89-2.106l-1.08.972 1.296-.918zm.162-.162l.216.108 1.188-.81h-.648zm.702-.864l-3.726-.432.054.162 1.134.432zm-3.888-.324v-.108l-.432-.054zm-.81-.378l.756.054-.108-.324zm.108-.27l.54-.216-.054-.216zm.594-.54l.108.27 5.994-2.538 1.512-4.86zm.27-12.744l6.102-2.052-7.398 1.08zm-1.782-1.35zm.108-.216l.162.378 2.376-4.968zm-.054.54l-.162-.162-.108.216zm-.054.162l-.324.108-.648 1.08zm-1.512 1.89l.918-1.728-1.836.432zm-.27-.054l-.864-1.242-1.134.27zm-1.998-1.134l1.026-.216-.324-.54zm-.216-.054l.81-.864-.918-1.296zm-.162-.216l-.162-2.214-2.97-4.266zm-9.288.27l5.4-7.614-5.94.54zm-.162 0l-.54-7.074-4.752.432zM8.37 4.914l4.266-.378-.108-1.242zm4.752 7.074l-5.346-6.75-2.322 8.532zm.054 8.748l-7.83-6.75-4.968 6.642 7.236 5.724zM1.458 25.92l-1.026-.108 1.674 3.942.27-.162zm.972 3.834l-.216.162.54 1.296zm10.638 2.754l-9.828-.27 3.996 10.476zm-5.94 10.584L4.86 44.928l2.862 2.808zm-2.43 1.728l2.322-1.836-6.534-2.322zm2.97 3.078l-2.97-2.862L.54 48.33zm1.134-.756l-.81.864 3.24 5.076zm4.86-4.752l-1.89 11.34 8.748-5.832zm11.718 5.184l-4.482.432 5.184 5.184zm.162 0l.702 5.562 2.646-5.886zm-.648-5.616l4.104 5.076 6.156-9.234zm8.424-7.344l1.998 2.808.648-2.862zm-.108-.162l2.808-.054.324-1.458-2.916-1.566-1.782.864zm3.294-1.404l-.324 1.35h2.808zm.054-.162l2.484 1.296-2.106-2.862zm-.162-.108l.378-1.674-.756-1.026-2.43 1.188zm-.216-2.808l.648.918.324-1.404zm-.594-.756h1.134l-1.512-.594zm-.216-.054l-.486-.648-3.024-1.134-2.322 1.566zm-3.348-1.944l2.7 1.08-1.404-1.944zm.702-1.134l.54.054.216-.81zm-.27-.054l1.134-1.026.756-2.376-5.94 2.484.108.486zm2.106-3.51l-.702 2.268 4.05-3.672zm.054-.216l3.618-1.512-2.106-3.294zm1.134-12.69h.054l-.054-.378v.378zm-.162-.27l.054-4.266-2.052 1.458zm-.054.216l-2.106-2.916-6.048 4.158zm-8.262 1.134l6.048-4.212-2.376-3.402zm-.486-.486l3.672-6.642-4.482 4.914zm-.108.162l-.81-1.728-.648.648 1.404 1.188zm-.162.27L25.11 9.45l-1.296 1.404.432.648 2.106-.486zm-2.808.108l1.296-1.404-2.484-2.106.108 1.998zm-1.242-1.782l-.108-1.89-2.97-2.538zm-3.348-4.86l3.186 2.7-.162-2.97zm0-.162l2.97-.27L21.87.324zm-6.318.54l5.346-.432-5.454-.756zm-4.968.432l4.59-1.782L8.316.378zm-.162 0L8.154.432 4.698 2.97zm-.162.108l-2.97-1.944L.54 5.994zm0 .162l-7.128.972 2.862 4.428zm.054.27l-4.212 5.238 1.944 2.97zM.324 20.358l4.806-6.372-4.86.594zm1.674 9.504l-1.674-3.78-.162 4.86zm.054.162L.27 31.104l2.646.918zm5.022 12.744L3.078 32.4.27 40.392zm-2.484 2.16L.216 40.662l.108 7.614zm2.97 3.186l-7.182.432.054 4.968zm.27 0L.594 53.622l10.908.216zm12.852-.054l-8.694 5.778 13.986-.486zm8.37-.756l-2.7 5.994 8.1-2.754zM35.37 37.8l-6.102 9.18 10.314-3.618zm.81-3.24l-.648 2.862 3.51-2.862H36.18zm.756-3.51l2.052 2.808-1.728-4.212zm-1.944-2.646l1.782.648-3.024-2.376zM33.75 25.11l-.216.756 3.348-3.564zm2.43-7.83l1.998 3.078-.972-3.996zm0-.216l.972-.918-1.134-4.752zm-.216-6.534l1.35 5.454 2.106-1.998-3.456-3.888v.432zm0-.702l3.294 3.726L35.856 5.4zM33.48 6.372l2.052-1.404-4.374-1.836zm-7.56 1.944l4.752-5.292-6.912.648zm-.162.162l-2.214-4.752-1.242.108.216 3.132L25.11 9.18zm-3.456-4.806l1.188-.162L22.086.594zm-3.402.27L21.708.27l-6.804 2.268zm-.81-.108l-3.456-1.242-1.62.54zm-5.454-.756l1.728-.594L8.91.54zm-8.1-.216L7.992.324H.702zm-.162.108L.486.378.324 5.94zm-1.242 7.722L.27 6.426v7.83zm.108.162L.432 14.418l4.752-.594zm-.27 21.384L.162 31.212l.054 8.748zm31.698 18.198l4.86-6.858-10.314 3.618zm4.968-7.29l-.378-8.532-3.78 3.024zM38.34 20.358l1.08-6.102-2.052 1.944zM30.456 2.862L22.14.27l1.512 3.24zM21.384.216L8.748.324l5.886 2.106z" xmlns:name="symbol_mainfill"/></svg></svg>