
		<svg width="3203.489158873078" height="752.909965455343" xmlns="http://www.w3.org/2000/svg" xmlns:xlink="http://www.w3.org/1999/xlink" version="1.1">
            <g transform="scale(10.174457943653909) translate(10, 10)">
				<svg xmlns="http://www.w3.org/2000/svg" xmlns:xlink="http://www.w3.org/1999/xlink" version="1.1">
                <g id="SvgjsG1093" rel="mainfill" name="main_text" xmlns:name="mainText_mainfill" fill="#000000" transform="translate(54.798004150390625,-0.7558717727661133)"><path d="M13.156 16.458 q0.754 0.754 1.17 1.755 t0.416 2.145 q0 1.17 -0.442 2.197 t-1.209 1.794 t-1.794 1.209 t-2.197 0.442 l-9.1 0 l0 -3.64 l1.82 0 l0 -10.92 l-1.82 0 l0 -3.64 l9.1 0 q1.092 0 2.054 0.416 t1.677 1.131 t1.131 1.677 t0.416 2.054 q0 0.962 -0.325 1.82 t-0.897 1.56 z M9.1 24.362000000000002 q0.832 0 1.56 -0.312 t1.274 -0.858 t0.858 -1.274 t0.312 -1.56 q0 -1.612 -1.118 -2.782 l-0.104 -0.104 q-0.286 -0.286 -0.559 -0.442 t-0.507 -0.286 q-0.286 -0.104 -0.52 -0.208 q0.26 -0.13 0.546 -0.26 q0.234 -0.13 0.468 -0.299 t0.442 -0.403 l0.156 -0.182 q0.39 -0.494 0.611 -1.079 t0.221 -1.235 q0 -0.754 -0.286 -1.417 t-0.78 -1.157 t-1.157 -0.78 t-1.417 -0.286 l-7.462 0 l0 0.364 l1.82 0 l0 14.196 l-1.82 0 l0 0.364 l7.462 0 z M9.1 16.718 q0.754 0 1.417 0.286 t1.157 0.78 t0.78 1.157 t0.286 1.417 t-0.286 1.417 t-0.78 1.157 t-1.157 0.78 t-1.417 0.286 l-5.278 0 l0 -7.28 l5.278 0 z M9.1 22.36 q0.832 0 1.417 -0.585 t0.585 -1.417 t-0.585 -1.417 t-1.417 -0.585 l-3.64 0 l0 4.004 l3.64 0 z M12.376 13.078 q0 0.676 -0.26 1.274 t-0.702 1.04 t-1.04 0.702 t-1.274 0.26 l-5.278 0 l0 -6.552 l5.278 0 q0.676 0 1.274 0.26 t1.04 0.702 t0.702 1.04 t0.26 1.274 z M5.46 14.716 l3.64 0 q0.676 0 1.157 -0.481 t0.481 -1.157 t-0.481 -1.157 t-1.157 -0.481 l-3.64 0 l0 3.276 z M25.272 13.26 l0 -1.82 l-3.64 0 l0 3.64 l3.64 0 l0 3.64 l-3.64 0 l0 3.64 l3.64 0 l0 -1.82 l3.64 0 l0 5.46 l-12.74 0 l0 -3.64 l1.82 0 l0 -10.92 l-1.82 0 l0 -3.64 l12.74 0 l0 5.46 l-3.64 0 z M26.91 9.802 l0 1.82 l0.364 0 l0 -2.184 l-9.464 0 l0 0.364 l1.82 0 l0 14.196 l-1.82 0 l0 0.364 l9.464 0 l0 -2.184 l-0.364 0 l0 1.82 l-6.916 0 l0 -6.916 l3.64 0 l0 -0.364 l-3.64 0 l0 -6.916 l6.916 0 z M48.568 7.800000000000001 l0 3.64 l-1.82 0 l0 14.56 l-3.64 0 l-7.098 -11.336 l0 7.696 l1.82 0 l0 3.64 l-7.28 0 l0 -3.64 l1.82 0 l0 -10.92 l-1.82 0 l0 -3.64 l5.46 0 l7.098 11.336 l0 -7.696 l-1.82 0 l0 -3.64 l7.28 0 z M46.93 9.437999999999999 l-4.004 0 l0 0.364 l1.82 0 l0 14.196 l-0.52 0 l-9.126 -14.56 l-2.912 0 l0 0.364 l1.82 0 l0 14.196 l-1.82 0 l0 0.364 l4.004 0 l0 -0.364 l-1.82 0 l0 -14.196 l0.52 0 l9.126 14.56 l1.092 0 l0 -14.56 l1.82 0 l0 -0.364 z M62.946000000000005 7.800000000000001 l0 3.64 l-1.82 0 l0 9.1 q0 1.144 -0.429 2.132 t-1.17 1.729 t-1.742 1.17 t-2.119 0.429 q-1.144 0 -2.132 -0.429 t-1.729 -1.17 t-1.17 -1.729 t-0.429 -2.132 l0 -1.82 l3.64 0 l0 1.82 q0 0.754 0.533 1.287 t1.287 0.533 t1.287 -0.533 t0.533 -1.287 l0 -9.1 l-1.82 0 l0 -3.64 l7.28 0 z M61.30800000000001 9.437999999999999 l-4.004 0 l0 0.364 l1.82 0 l0 10.738 q0 0.702 -0.273 1.339 t-0.741 1.105 t-1.105 0.741 t-1.339 0.273 t-1.339 -0.273 t-1.105 -0.741 t-0.741 -1.105 t-0.273 -1.339 l0 -0.182 l-0.364 0 l0 0.182 q0 0.78 0.299 1.482 t0.819 1.222 t1.222 0.819 t1.482 0.299 t1.482 -0.299 t1.222 -0.819 t0.819 -1.222 t0.299 -1.482 l0 -10.738 l1.82 0 l0 -0.364 z M71.916 9.437999999999999 l-4.368 14.56 l-1.326 0 l0 0.364 l4.004 0 l0 -0.364 l-2.288 0 l1.534 -5.096 l8.06 0 l1.534 5.096 l-2.288 0 l0 0.364 l4.004 0 l0 -0.364 l-1.352 0 l-4.368 -14.56 l-3.146 0 z M72.202 9.802 l2.6 0 l2.626 8.736 l-7.852 0 z M80.652 22.36 l1.768 0 l0 3.64 l-7.28 0 l0 -3.64 l1.716 0 l-0.546 -1.82 l-5.616 0 l-0.546 1.82 l1.716 0 l0 3.64 l-7.28 0 l0 -3.64 l1.768 0 l4.368 -14.56 l5.564 0 z M75.218 16.9 l-1.638 -5.46 l-0.156 0 l-1.638 5.46 l3.432 0 z M100.412 11.44 l0 10.92 l1.82 0 l0 3.64 l-7.28 0 l0 -3.64 l1.82 0 l0 -7.826 l-3.64 5.772 l-3.64 -5.772 l0 7.826 l1.82 0 l0 3.64 l-7.28 0 l0 -3.64 l1.82 0 l0 -10.92 l-1.82 0 l0 -3.64 l5.512 0 l3.588 5.694 l3.588 -5.694 l5.512 0 l0 3.64 l-1.82 0 z M98.77400000000002 23.998 l0 -14.196 l1.82 0 l0 -0.364 l-2.964 0 l-4.498 7.124 l-4.498 -7.124 l-2.964 0 l0 0.364 l1.82 0 l0 14.196 l-1.82 0 l0 0.364 l4.004 0 l0 -0.364 l-1.82 0 l0 -14.196 l0.572 0 l4.706 7.436 l4.706 -7.436 l0.572 0 l0 14.196 l-1.82 0 l0 0.364 l4.004 0 l0 -0.364 l-1.82 0 z M109.304 11.44 l0 10.92 l1.82 0 l0 3.64 l-7.28 0 l0 -3.64 l1.82 0 l0 -10.92 l-1.82 0 l0 -3.64 l7.28 0 l0 3.64 l-1.82 0 z M107.66600000000001 23.998 l0 -14.196 l1.82 0 l0 -0.364 l-4.004 0 l0 0.364 l1.82 0 l0 14.196 l-1.82 0 l0 0.364 l4.004 0 l0 -0.364 l-1.82 0 z M130.78 7.800000000000001 l0 3.64 l-1.82 0 l0 14.56 l-3.64 0 l-7.098 -11.336 l0 7.696 l1.82 0 l0 3.64 l-7.28 0 l0 -3.64 l1.82 0 l0 -10.92 l-1.82 0 l0 -3.64 l5.46 0 l7.098 11.336 l0 -7.696 l-1.82 0 l0 -3.64 l7.28 0 z M129.142 9.437999999999999 l-4.004 0 l0 0.364 l1.82 0 l0 14.196 l-0.52 0 l-9.126 -14.56 l-2.912 0 l0 0.364 l1.82 0 l0 14.196 l-1.82 0 l0 0.364 l4.004 0 l0 -0.364 l-1.82 0 l0 -14.196 l0.52 0 l9.126 14.56 l1.092 0 l0 -14.56 l1.82 0 l0 -0.364 z  M146.79600000000002 9.437999999999999 q-0.78 0 -1.482 0.299 t-1.222 0.819 t-0.819 1.222 t-0.299 1.482 l0 7.28 q0 0.78 0.299 1.482 t0.819 1.222 t1.222 0.819 t1.482 0.299 l3.64 0 q0.702 0 1.326 -0.234 t1.118 -0.65 t0.832 -0.975 t0.468 -1.235 l-0.364 0 q-0.26 1.17 -1.196 1.95 t-2.184 0.78 l-3.64 0 q-0.702 0 -1.339 -0.273 t-1.105 -0.741 t-0.741 -1.105 t-0.273 -1.339 l0 -7.28 q0 -0.702 0.273 -1.339 t0.741 -1.105 t1.105 -0.741 t1.339 -0.273 l3.64 0 q1.248 0 2.184 0.78 t1.196 1.95 l0.364 0 q-0.13 -0.65 -0.468 -1.222 t-0.832 -0.988 t-1.118 -0.65 t-1.326 -0.234 l-3.64 0 z M150.436 7.800000000000001 q1.118 0 2.119 0.429 t1.742 1.17 t1.17 1.742 t0.429 2.119 l0 0.91 l-3.64 0 l0 -0.91 q0 -0.754 -0.533 -1.287 t-1.287 -0.533 l-3.64 0 q-0.754 0 -1.287 0.533 t-0.533 1.287 l0 7.28 q0 0.754 0.533 1.287 t1.287 0.533 l3.64 0 q0.754 0 1.287 -0.533 t0.533 -1.287 l0 -0.91 l3.64 0 l0 0.91 q0 1.144 -0.429 2.132 t-1.17 1.729 t-1.742 1.17 t-2.119 0.429 l-3.64 0 q-1.144 0 -2.132 -0.429 t-1.729 -1.17 t-1.17 -1.729 t-0.429 -2.132 l0 -7.28 q0 -1.118 0.429 -2.119 t1.17 -1.742 t1.729 -1.17 t2.132 -0.429 l3.64 0 z M162.812 9.437999999999999 q-0.78 0 -1.482 0.299 t-1.222 0.819 t-0.819 1.222 t-0.299 1.482 l0 7.28 q0 0.78 0.299 1.482 t0.819 1.222 t1.222 0.819 t1.482 0.299 l3.64 0 q0.78 0 1.482 -0.299 t1.222 -0.819 t0.819 -1.222 t0.299 -1.482 l0 -7.28 q0 -0.78 -0.299 -1.482 t-0.819 -1.222 t-1.222 -0.819 t-1.482 -0.299 l-3.64 0 z M162.812 23.998 q-0.702 0 -1.339 -0.273 t-1.105 -0.741 t-0.741 -1.105 t-0.273 -1.339 l0 -7.28 q0 -0.702 0.273 -1.339 t0.741 -1.105 t1.105 -0.741 t1.339 -0.273 l3.64 0 q0.702 0 1.339 0.273 t1.105 0.741 t0.741 1.105 t0.273 1.339 l0 7.28 q0 0.702 -0.273 1.339 t-0.741 1.105 t-1.105 0.741 t-1.339 0.273 l-3.64 0 z M166.452 7.800000000000001 q1.118 0 2.119 0.429 t1.742 1.17 t1.17 1.742 t0.429 2.119 l0 7.28 q0 1.144 -0.429 2.132 t-1.17 1.729 t-1.742 1.17 t-2.119 0.429 l-3.64 0 q-1.144 0 -2.132 -0.429 t-1.729 -1.17 t-1.17 -1.729 t-0.429 -2.132 l0 -7.28 q0 -1.118 0.429 -2.119 t1.17 -1.742 t1.729 -1.17 t2.132 -0.429 l3.64 0 z M166.452 22.36 q0.754 0 1.287 -0.533 t0.533 -1.287 l0 -7.28 q0 -0.754 -0.533 -1.287 t-1.287 -0.533 l-3.64 0 q-0.754 0 -1.287 0.533 t-0.533 1.287 l0 7.28 q0 0.754 0.533 1.287 t1.287 0.533 l3.64 0 z M188.084 7.800000000000001 l0 5.46 l-3.64 0 l0 -1.82 l-1.82 0 l0 10.92 l1.82 0 l0 3.64 l-7.28 0 l0 -3.64 l1.82 0 l0 -10.92 l-1.82 0 l0 1.82 l-3.64 0 l0 -5.46 l14.56 0 z M186.446 9.437999999999999 l-11.284 0 l0 2.184 l0.364 0 l0 -1.82 l5.096 0 l0 14.196 l-1.82 0 l0 0.364 l4.004 0 l0 -0.364 l-1.82 0 l0 -14.196 l5.096 0 l0 1.82 l0.364 0 l0 -2.184 z M204.256 7.800000000000001 l0 5.46 l-3.64 0 l0 -1.82 l-1.82 0 l0 10.92 l1.82 0 l0 3.64 l-7.28 0 l0 -3.64 l1.82 0 l0 -10.92 l-1.82 0 l0 1.82 l-3.64 0 l0 -5.46 l14.56 0 z M202.618 9.437999999999999 l-11.284 0 l0 2.184 l0.364 0 l0 -1.82 l5.096 0 l0 14.196 l-1.82 0 l0 0.364 l4.004 0 l0 -0.364 l-1.82 0 l0 -14.196 l5.096 0 l0 1.82 l0.364 0 l0 -2.184 z M211.328 9.437999999999999 q-0.78 0 -1.482 0.299 t-1.222 0.819 t-0.819 1.222 t-0.299 1.482 l0 7.28 q0 0.78 0.299 1.482 t0.819 1.222 t1.222 0.819 t1.482 0.299 l3.64 0 q0.78 0 1.482 -0.299 t1.222 -0.819 t0.819 -1.222 t0.299 -1.482 l0 -7.28 q0 -0.78 -0.299 -1.482 t-0.819 -1.222 t-1.222 -0.819 t-1.482 -0.299 l-3.64 0 z M211.328 23.998 q-0.702 0 -1.339 -0.273 t-1.105 -0.741 t-0.741 -1.105 t-0.273 -1.339 l0 -7.28 q0 -0.702 0.273 -1.339 t0.741 -1.105 t1.105 -0.741 t1.339 -0.273 l3.64 0 q0.702 0 1.339 0.273 t1.105 0.741 t0.741 1.105 t0.273 1.339 l0 7.28 q0 0.702 -0.273 1.339 t-0.741 1.105 t-1.105 0.741 t-1.339 0.273 l-3.64 0 z M214.968 7.800000000000001 q1.118 0 2.119 0.429 t1.742 1.17 t1.17 1.742 t0.429 2.119 l0 7.28 q0 1.144 -0.429 2.132 t-1.17 1.729 t-1.742 1.17 t-2.119 0.429 l-3.64 0 q-1.144 0 -2.132 -0.429 t-1.729 -1.17 t-1.17 -1.729 t-0.429 -2.132 l0 -7.28 q0 -1.118 0.429 -2.119 t1.17 -1.742 t1.729 -1.17 t2.132 -0.429 l3.64 0 z M214.968 22.36 q0.754 0 1.287 -0.533 t0.533 -1.287 l0 -7.28 q0 -0.754 -0.533 -1.287 t-1.287 -0.533 l-3.64 0 q-0.754 0 -1.287 0.533 t-0.533 1.287 l0 7.28 q0 0.754 0.533 1.287 t1.287 0.533 l3.64 0 z M240.058 7.800000000000001 l0 3.64 l-1.82 0 l0 14.56 l-3.64 0 l-7.098 -11.336 l0 7.696 l1.82 0 l0 3.64 l-7.28 0 l0 -3.64 l1.82 0 l0 -10.92 l-1.82 0 l0 -3.64 l5.46 0 l7.098 11.336 l0 -7.696 l-1.82 0 l0 -3.64 l7.28 0 z M238.42 9.437999999999999 l-4.004 0 l0 0.364 l1.82 0 l0 14.196 l-0.52 0 l-9.126 -14.56 l-2.912 0 l0 0.364 l1.82 0 l0 14.196 l-1.82 0 l0 0.364 l4.004 0 l0 -0.364 l-1.82 0 l0 -14.196 l0.52 0 l9.126 14.56 l1.092 0 l0 -14.56 l1.82 0 l0 -0.364 z"/></g><defs id="SvgjsDefs1092"/><g id="SvgjsG1094" rel="mainfill" name="slogan_text" xmlns:name="sloganText_mainfill" fill="#000000" transform="translate(53.75060427188873,28.747849941253662)"><path d="M1.0474 6.884281250000001 l4.1309 0 q0.76171875 0 1.450195313 0.1977539063 t1.2817 0.55664 t1.0767 0.8606 t0.82397 1.1169 t0.52368 1.322 t0.18311 1.4685 q0 0.7763671875 -0.1831054688 1.486816406 t-0.52368 1.333 t-0.82397 1.1316 t-1.0767 0.87158 t-1.2817 0.5603 t-1.4502 0.19775 l-4.1309 0 l0 -1.2598 l1.0547 0 l0 -8.5767 l-1.0547 0 l0 -1.2671 z M3.5376 8.15188125 l0 8.5767 l1.7285 0 q0.7690429688 0 1.446533203 -0.3369140625 t1.1829 -0.91919 t0.79834 -1.3696 t0.29297 -1.6956 q0 -0.8935546875 -0.29296875 -1.669921875 t-0.79834 -1.3513 t-1.1829 -0.90454 t-1.4465 -0.32959 l-1.7285 0 z M15.838659765625 6.884281250000001 l4.4897 0 q0.7470703125 0 1.373291016 0.1940917969 t1.084 0.57129 t0.71045 0.94116 t0.25269 1.2964 q0 0.6079101563 -0.2490234375 1.146240234 t-0.70313 0.94116 t-1.0876 0.63721 t-1.4099 0.23438 l-1.9702 0 l0 3.8818 l1.1133 0 l0 1.2598 l-3.6035 0 l0 -1.2598 l1.0547 0 l0 -8.5767 l-1.0547 0 l0 -1.2671 z M18.328859765625 8.15188125 l0 3.4937 l1.9995 0 q0.4174804688 0 0.7653808594 -0.1135253906 t0.60059 -0.33325 t0.39551 -0.54932 t0.14282 -0.76172 q0 -0.8203125 -0.498046875 -1.278076172 t-1.5894 -0.45776 l-1.8164 0 z M32.526828125 6.496281249999999 l1.2744 0 l-4.3945 11.704 l-1.2744 0 z M38.873327734375 6.884281250000001 l7.9541 0 l0 3.1421 l-1.5015 0 l0 -1.875 l-3.9624 0 l0 3.5522 l3.3325 0 l0 1.2598 l-3.3325 0 l0 3.7646 l3.9624 0 l0 -1.875 l1.5015 0 l0 3.1348 l-7.9541 0 l0 -1.2598 l1.0547 0 l0 -8.5767 l-1.0547 0 l0 -1.2671 z M52.04593515625 6.884281250000001 l4.1309 0 q0.76171875 0 1.450195313 0.1977539063 t1.2817 0.55664 t1.0767 0.8606 t0.82397 1.1169 t0.52368 1.322 t0.18311 1.4685 q0 0.7763671875 -0.1831054688 1.486816406 t-0.52368 1.333 t-0.82397 1.1316 t-1.0767 0.87158 t-1.2817 0.5603 t-1.4502 0.19775 l-4.1309 0 l0 -1.2598 l1.0547 0 l0 -8.5767 l-1.0547 0 l0 -1.2671 z M54.53613515625 8.15188125 l0 8.5767 l1.7285 0 q0.7690429688 0 1.446533203 -0.3369140625 t1.1829 -0.91919 t0.79834 -1.3696 t0.29297 -1.6956 q0 -0.8935546875 -0.29296875 -1.669921875 t-0.79834 -1.3513 t-1.1829 -0.90454 t-1.4465 -0.32959 l-1.7285 0 z M66.837194921875 6.884281250000001 l3.5449 0 l0 1.2671 l-1.0547 0 l0 8.5767 l1.0547 0 l0 1.2598 l-3.5449 0 l0 -1.2598 l1.0547 0 l0 -8.5767 l-1.0547 0 l0 -1.2671 z M78.50100546875 16.72848125 l1.0181 0 l0 -8.6426 l-2.5342 0 l0 1.7285 l-1.5015 0 l0 -2.9297 l9.9023 0 l0 2.9297 l-1.5015 0 l0 -1.7285 l-2.9297 0 l0 8.6426 l1.1426 0 l0 1.2598 l-3.5962 0 l0 -1.2598 z M95.29179726562501 18.20801125 q-1.149902344 0 -2.102050781 -0.4284667969 t-1.6992 -1.2195 t-1.1353 -1.875 t-0.38818 -2.2485 q0 -1.201171875 0.3918457031 -2.255859375 t1.0986 -1.8347 t1.6846 -1.2305 t2.1497 -0.45044 q1.179199219 0 2.160644531 0.4504394531 t1.6846 1.2305 t1.0913 1.8347 t0.38818 2.2559 t-0.39185 2.2522 t-1.0986 1.8347 t-1.6846 1.2341 t-2.1497 0.45044 z M95.29179726562501 16.84568125 q0.8715820313 0 1.578369141 -0.3588867188 t1.2048 -0.96313 t0.76904 -1.4026 t0.271 -1.6846 q0 -0.908203125 -0.2966308594 -1.754150391 t-0.82764 -1.4319 t-1.2341 -0.90454 t-1.4648 -0.3186 q-0.8715820313 0 -1.58203125 0.3588867188 t-1.2085 0.96313 t-0.76904 1.4063 t-0.271 1.6809 q0 1.025390625 0.3002929688 1.827392578 t0.79468 1.333 t1.1792 0.88989 t1.5564 0.35889 z M105.93753671875 6.884281250000001 l4.6216 0 q0.7397460938 0 1.365966797 0.1940917969 t1.084 0.57129 t0.71411 0.94116 t0.25635 1.2964 q0 0.4174804688 -0.1501464844 0.8239746094 t-0.41748 0.75439 t-0.63354 0.6189 t-0.79834 0.41748 q0.1831054688 0.08056640625 0.3698730469 0.2307128906 t0.35156 0.36621 t0.30029 0.49072 t0.21606 0.5896 l0.61523 2.417 l0.95947 0 l0.014648 1.3916 l-2.1606 0 l-0.82764 -3.3765 q-0.2270507813 -0.908203125 -0.6921386719 -1.336669922 t-1.2708 -0.42847 l-1.4282 0 l0 3.8818 l1.1133 0 l0 1.2598 l-3.6035 0 l0 -1.2598 l1.0547 0 l0 -8.5767 l-1.0547 0 l0 -1.2671 z M108.42773671875 8.15188125 l0 3.4937 l2.1313 0 q0.4174804688 0 0.7653808594 -0.1098632813 t0.60059 -0.32959 t0.39551 -0.54565 t0.14282 -0.75806 q0 -0.8276367188 -0.498046875 -1.2890625 t-1.582 -0.46143 l-1.9556 0 z M123.988009765625 6.496281249999999 l1.2744 0 l-4.3945 11.704 l-1.2744 0 z M130.334509375 6.884281250000001 l4.4897 0 q0.7470703125 0 1.373291016 0.1940917969 t1.084 0.57129 t0.71045 0.94116 t0.25269 1.2964 q0 0.6079101563 -0.2490234375 1.146240234 t-0.70313 0.94116 t-1.0876 0.63721 t-1.4099 0.23438 l-1.9702 0 l0 3.8818 l1.1133 0 l0 1.2598 l-3.6035 0 l0 -1.2598 l1.0547 0 l0 -8.5767 l-1.0547 0 l0 -1.2671 z M132.824709375 8.15188125 l0 3.4937 l1.9995 0 q0.4174804688 0 0.7653808594 -0.1135253906 t0.60059 -0.33325 t0.39551 -0.54932 t0.14282 -0.76172 q0 -0.8203125 -0.498046875 -1.278076172 t-1.5894 -0.45776 l-1.8164 0 z M143.404577734375 6.884281250000001 l4.6216 0 q0.7397460938 0 1.365966797 0.1940917969 t1.084 0.57129 t0.71411 0.94116 t0.25635 1.2964 q0 0.4174804688 -0.1501464844 0.8239746094 t-0.41748 0.75439 t-0.63354 0.6189 t-0.79834 0.41748 q0.1831054688 0.08056640625 0.3698730469 0.2307128906 t0.35156 0.36621 t0.30029 0.49072 t0.21606 0.5896 l0.61523 2.417 l0.95947 0 l0.014648 1.3916 l-2.1606 0 l-0.82764 -3.3765 q-0.2270507813 -0.908203125 -0.6921386719 -1.336669922 t-1.2708 -0.42847 l-1.4282 0 l0 3.8818 l1.1133 0 l0 1.2598 l-3.6035 0 l0 -1.2598 l1.0547 0 l0 -8.5767 l-1.0547 0 l0 -1.2671 z M145.894777734375 8.15188125 l0 3.4937 l2.1313 0 q0.4174804688 0 0.7653808594 -0.1098632813 t0.60059 -0.32959 t0.39551 -0.54565 t0.14282 -0.75806 q0 -0.8276367188 -0.498046875 -1.2890625 t-1.582 -0.46143 l-1.9556 0 z M162.64165078125 18.20801125 q-1.149902344 0 -2.102050781 -0.4284667969 t-1.6992 -1.2195 t-1.1353 -1.875 t-0.38818 -2.2485 q0 -1.201171875 0.3918457031 -2.255859375 t1.0986 -1.8347 t1.6846 -1.2305 t2.1497 -0.45044 q1.179199219 0 2.160644531 0.4504394531 t1.6846 1.2305 t1.0913 1.8347 t0.38818 2.2559 t-0.39185 2.2522 t-1.0986 1.8347 t-1.6846 1.2341 t-2.1497 0.45044 z M162.64165078125 16.84568125 q0.8715820313 0 1.578369141 -0.3588867188 t1.2048 -0.96313 t0.76904 -1.4026 t0.271 -1.6846 q0 -0.908203125 -0.2966308594 -1.754150391 t-0.82764 -1.4319 t-1.2341 -0.90454 t-1.4648 -0.3186 q-0.8715820313 0 -1.58203125 0.3588867188 t-1.2085 0.96313 t-0.76904 1.4063 t-0.271 1.6809 q0 1.025390625 0.3002929688 1.827392578 t0.79468 1.333 t1.1792 0.88989 t1.5564 0.35889 z M173.287390234375 6.884281250000001 l4.1309 0 q0.76171875 0 1.450195313 0.1977539063 t1.2817 0.55664 t1.0767 0.8606 t0.82397 1.1169 t0.52368 1.322 t0.18311 1.4685 q0 0.7763671875 -0.1831054688 1.486816406 t-0.52368 1.333 t-0.82397 1.1316 t-1.0767 0.87158 t-1.2817 0.5603 t-1.4502 0.19775 l-4.1309 0 l0 -1.2598 l1.0547 0 l0 -8.5767 l-1.0547 0 l0 -1.2671 z M175.777590234375 8.15188125 l0 8.5767 l1.7285 0 q0.7690429688 0 1.446533203 -0.3369140625 t1.1829 -0.91919 t0.79834 -1.3696 t0.29297 -1.6956 q0 -0.8935546875 -0.29296875 -1.669921875 t-0.79834 -1.3513 t-1.1829 -0.90454 t-1.4465 -0.32959 l-1.7285 0 z M187.85889 6.884281250000001 l3.5962 0 l0 1.2671 l-1.1353 0 l0 5.1709 q0 0.9301757813 0.2087402344 1.585693359 t0.57861 1.0693 t0.87891 0.60425 t1.1169 0.19043 q0.6298828125 0 1.157226563 -0.1684570313 t0.90454 -0.56763 t0.58594 -1.062 t0.20874 -1.6516 l0 -5.1709 l-1.2012 0 l0 -1.2671 l3.5962 0 l0 1.2671 l-0.98877 0 l0 5.0098 q0 1.201171875 -0.3332519531 2.131347656 t-0.91187 1.5601 t-1.3623 0.95581 t-1.6846 0.32593 q-0.87890625 0 -1.644287109 -0.322265625 t-1.333 -0.94482 t-0.89355 -1.5198 t-0.32593 -2.0544 l0 -5.1416 l-1.0181 0 l0 -1.2671 z M211.065651171875 9.81448125 q-0.4907226563 -0.8349609375 -1.300048828 -1.311035156 t-1.8054 -0.47607 q-0.849609375 0 -1.552734375 0.3588867188 t-1.2048 0.96313 t-0.78003 1.3989 t-0.27832 1.6736 q0 1.040039063 0.3076171875 1.842041016 t0.802 1.333 t1.1755 0.88623 t1.5308 0.35522 q1.157226563 0 2.014160156 -0.5603027344 t1.4648 -1.842 l1.2891 0.60791 q-0.2783203125 0.791015625 -0.9448242188 1.527099609 t-1.6443 1.1865 t-2.1643 0.45044 q-1.135253906 0 -2.087402344 -0.4284667969 t-1.6956 -1.2195 t-1.1353 -1.875 t-0.39185 -2.2632 q0 -1.186523438 0.3918457031 -2.241210938 t1.0986 -1.8347 t1.6846 -1.2305 t2.1204 -0.45044 q1.018066406 0 1.7578125 0.2893066406 t1.2561 0.68848 t0.88989 0.86792 l0.77637 0 l0 1.3037 l-1.5747 0 z M217.990759375 6.884281250000001 l7.9541 0 l0 3.1421 l-1.5015 0 l0 -1.875 l-3.9624 0 l0 3.5522 l3.3325 0 l0 1.2598 l-3.3325 0 l0 3.7646 l3.9624 0 l0 -1.875 l1.5015 0 l0 3.1348 l-7.9541 0 l0 -1.2598 l1.0547 0 l0 -8.5767 l-1.0547 0 l0 -1.2671 z M231.163366796875 6.884281250000001 l4.6216 0 q0.7397460938 0 1.365966797 0.1940917969 t1.084 0.57129 t0.71411 0.94116 t0.25635 1.2964 q0 0.4174804688 -0.1501464844 0.8239746094 t-0.41748 0.75439 t-0.63354 0.6189 t-0.79834 0.41748 q0.1831054688 0.08056640625 0.3698730469 0.2307128906 t0.35156 0.36621 t0.30029 0.49072 t0.21606 0.5896 l0.61523 2.417 l0.95947 0 l0.014648 1.3916 l-2.1606 0 l-0.82764 -3.3765 q-0.2270507813 -0.908203125 -0.6921386719 -1.336669922 t-1.2708 -0.42847 l-1.4282 0 l0 3.8818 l1.1133 0 l0 1.2598 l-3.6035 0 l0 -1.2598 l1.0547 0 l0 -8.5767 l-1.0547 0 l0 -1.2671 z M233.653566796875 8.15188125 l0 3.4937 l2.1313 0 q0.4174804688 0 0.7653808594 -0.1098632813 t0.60059 -0.32959 t0.39551 -0.54565 t0.14282 -0.75806 q0 -0.8276367188 -0.498046875 -1.2890625 t-1.582 -0.46143 l-1.9556 0 z"/></g><g id="SvgjsG1095" rel="mainfill" name="monogram" xmlns:name="symbol_mainfill" fill="#000000" transform="translate(0,-10.907999038696289) scale(1)"><path d="M0.054 51.354 l-0.054 -9.342 l0.108 0 l-0.108 0 l0.162 -9.288 l-0.054 -7.29 l0 0 l0 0 l0 0 l0.108 0 l-0.108 0 l0 -8.424 l0.108 0 l-0.108 0 l0.162 -5.886 l0.108 0 l0 -0.054 l7.884 0 l13.77 -0.162 l0 0.054 l8.91 2.808 l-0.054 0.054 l0.054 -0.054 l4.806 1.998 l0 0.054 l0.054 0 l3.834 9.018 l-0.054 0.054 l0.054 0 l-1.188 6.858 l-0.054 -0.054 l0.054 0.108 l-5.022 5.292 l3.888 3.078 l-0.054 0.054 l0.108 0 l2.052 5.13 l-0.108 0 l0.108 0 l0.378 8.964 l-0.054 0 l0.054 0.054 l-5.076 7.182 l-0.054 -0.054 l0.054 0.054 l-8.424 2.862 l0 0.054 l-14.688 0.432 l0 0 l-11.286 -0.216 l0 -0.108 l-0.108 0 l-0.054 -5.238 l0 0 l-0.108 -7.992 l0.108 0 l-0.108 0 z M35.91 40.824 l-0.432 -0.54 l-5.832 -0.216 l3.78 1.998 z M35.748 40.284 l0.324 0.486 l0.864 -0.432 z M0.432 31.751999999999995 l1.188 4.914 l5.724 0.594 z M1.404 36.611999999999995 l-1.026 -4.32 l0 4.212 z M31.266 38.06999999999999 l-1.566 -0.594 l-0.918 0.054 l0.54 2.268 z M30.132 37.422 l1.242 0.486 l0.702 -0.594 z M13.284 43.416 l0.432 9.612 l10.962 -0.27 l2.052 -7.236 l-6.75 -2.052 z M26.73 24.677999999999997 l-1.35 -0.54 l1.08 3.618 z M25.542 24.029999999999994 l1.188 0.432 l0.054 -0.864 z M35.64 28.134 l-6.048 -2.376 l-2.862 2.43 z M29.754 25.65 l5.67 2.214 l-4.536 -3.186 z M20.412 42.821999999999996 l3.618 -3.456 l-0.594 -1.404 z M24.138 39.528 l-3.78 3.618 l4.59 -1.728 z M26.784 36.774 l-0.054 -0.054 l-2.646 0.918 l1.89 -0.108 z M23.598 37.638 l3.024 -1.08 l-1.89 -2.592 z M23.598 37.961999999999996 l0.594 1.296 l0.81 -0.81 z M23.868 37.854 l1.296 0.486 l0.594 -0.648 z M26.082 37.69199999999999 l-0.756 0.702 l1.728 0.648 l0.054 -1.404 z M27.324 37.638 l-0.108 1.458 l1.782 0.648 l-1.566 -2.16 z M27.108 37.476 l0.054 -0.27 l-0.27 -0.324 l-0.648 0.648 z M27 36.774 l0.162 0.162 l0 -0.27 z M26.838 36.504 l0.27 -0.108 l-2.268 -2.646 l0 0.054 z M24.678 33.587999999999994 l-0.108 -0.162 z M24.624 33.804 l-1.35 -1.836 l0.216 5.346 z M19.926 43.254 l3.24 -5.238 l-9.612 5.184 z M25.056 41.58 l-4.806 1.782 l6.426 1.998 z M25.218 41.525999999999996 l1.566 3.564 l0.162 -4.212 z M25.11 41.364 l1.89 -0.648 l0.054 -1.512 l-1.89 -0.702 l-0.918 0.918 z M27.216 39.312 l-0.054 1.296 l1.836 -0.648 z M28.458 38.717999999999996 l-0.648 -1.134 l-0.162 0 z M28.026 37.583999999999996 l1.026 1.782 l-0.432 -1.836 z M27.486 37.422 l0.216 0 l-0.378 -0.702 l0 0.432 z M24.894 33.534 l2.268 2.646 l-0.702 -7.506 z M26.622 28.025999999999996 l2.754 -2.322 l-2.484 -0.972 z M24.732 33.372 l1.566 -4.806 l-3.024 3.078 z M23.058 31.751999999999995 l-9.396 0 l9.666 5.886 z M23.274 37.8 l-9.882 -5.994 l-0.108 11.34 z M27.162 40.824 l-0.216 4.212 l2.16 -4.914 z M28.728 37.367999999999995 l0.594 -0.054 l-0.648 -0.27 z M28.566 37.367999999999995 l-0.108 -0.378 l-0.972 -0.378 l0.432 0.81 z M26.73 29.483999999999995 l0.594 6.75 l0.81 -0.702 z M26.622 28.349999999999994 l1.674 7.02 l7.56 -7.074 z M31.05 24.57 l4.914 3.456 l-0.378 -7.29 z M30.888 24.461999999999996 l4.374 -3.672 l-6.48 2.16 z M30.78 24.57 l-2.214 -1.566 l-1.566 0.54 l-0.108 1.026 l2.646 1.026 z M27 23.327999999999996 l1.35 -0.432 l-1.242 -0.918 z M26.784 23.381999999999998 l0.108 -1.242 l-1.35 1.674 z M26.406 28.241999999999997 l-1.242 -4.158 l-2.43 -1.134 l-9.396 0.108 l0.054 8.532 l9.72 0 z M13.446 22.842 l9.126 -0.108 l-3.672 -7.614 z M13.23 31.482 l-0.054 -8.424 l-7.668 1.782 z M13.122 43.092 l0.108 -11.232 l-5.508 5.508 z M7.344 37.422 l-5.67 -0.594 l0.864 3.564 z M7.236 37.69199999999999 l-4.644 2.916 l0.54 2.268 z M7.614 37.53 l-4.32 5.454 l9.72 0.216 z M13.5 53.028 l-0.378 -9.396 l-5.778 10.098 z M7.344 53.891999999999996 l1.566 3.834 l4.482 -4.482 z M8.748 57.888 l-1.35 -3.402 l0.54 4.212 z M13.5 53.406 l-4.536 4.536 l2.7 6.588 z M24.57 52.919999999999995 l-10.692 0.27 l6.804 5.508 z M24.678 53.081999999999994 l-3.834 5.67 l4.482 -0.432 z M24.84 53.135999999999996 l0.702 5.184 l3.294 -0.324 z M26.892 45.57599999999999 l-1.998 7.128 l10.26 -4.158 z M27.324 45.57599999999999 l7.83 2.808 l-2.052 -2.862 z M27.216 45.414 l5.778 -0.054 l-1.512 -2.106 z M27.054 45.306 l4.32 -2.214 l-2.106 -2.97 z M29.538 40.23 l1.998 2.808 l1.674 -0.864 z M31.428 38.123999999999995 l-1.08 0.972 l1.296 -0.918 z M31.59 37.961999999999996 l0.216 0.108 l1.188 -0.81 l-0.648 0 z M32.292 37.098 l-3.726 -0.432 l0.054 0.162 l1.134 0.432 z M28.404 36.774 l0 -0.108 l-0.432 -0.054 z M27.594 36.396 l0.756 0.054 l-0.108 -0.324 z M27.702 36.126 l0.54 -0.216 l-0.054 -0.216 z M28.296 35.586 l0.108 0.27 l5.994 -2.538 l1.512 -4.86 z M28.566 22.842 l6.102 -2.052 l-7.398 1.08 z M26.784 21.491999999999997 l0 0 l0 0 z M26.892 21.275999999999996 l0.162 0.378 l2.376 -4.968 z M26.838 21.815999999999995 l-0.162 -0.162 l-0.108 0.216 z M26.784 21.977999999999994 l-0.324 0.108 l-0.648 1.08 z M25.272 23.867999999999995 l0.918 -1.728 l-1.836 0.432 z M25.002 23.814 l-0.864 -1.242 l-1.134 0.27 z M23.004 22.68 l1.026 -0.216 l-0.324 -0.54 z M22.788 22.625999999999998 l0.81 -0.864 l-0.918 -1.296 z M22.626 22.409999999999997 l-0.162 -2.214 l-2.97 -4.266 z M13.338 22.68 l5.4 -7.614 l-5.94 0.54 z M13.176 22.68 l-0.54 -7.074 l-4.752 0.432 z M8.37 15.821999999999996 l4.266 -0.378 l-0.108 -1.242 z M13.122 22.895999999999994 l-5.346 -6.75 l-2.322 8.532 z M13.176 31.644 l-7.83 -6.75 l-4.968 6.642 l7.236 5.724 z M1.458 36.827999999999996 l-1.026 -0.108 l1.674 3.942 l0.27 -0.162 z M2.43 40.66199999999999 l-0.216 0.162 l0.54 1.296 z M13.068 43.416 l-9.828 -0.27 l3.996 10.476 z M7.128 54 l-2.268 1.836 l2.862 2.808 z M4.698 55.727999999999994 l2.322 -1.836 l-6.534 -2.322 z M7.668 58.806 l-2.97 -2.862 l-4.158 3.294 z M8.802 58.05 l-0.81 0.864 l3.24 5.076 z M13.662 53.297999999999995 l-1.89 11.34 l8.748 -5.832 z M25.38 58.482 l-4.482 0.432 l5.184 5.184 z M25.542 58.482 l0.702 5.562 l2.646 -5.886 z M24.894 52.866 l4.104 5.076 l6.156 -9.234 z M33.318 45.522 l1.998 2.808 l0.648 -2.862 z M33.21 45.36 l2.808 -0.054 l0.324 -1.458 l-2.916 -1.566 l-1.782 0.864 z M36.504 43.955999999999996 l-0.324 1.35 l2.808 0 z M36.558 43.794 l2.484 1.296 l-2.106 -2.862 z M36.396 43.68599999999999 l0.378 -1.674 l-0.756 -1.026 l-2.43 1.188 z M36.18 40.878 l0.648 0.918 l0.324 -1.404 z M35.586 40.122 l1.134 0 l-1.512 -0.594 z M35.37 40.068 l-0.486 -0.648 l-3.024 -1.134 l-2.322 1.566 z M32.022 38.123999999999995 l2.7 1.08 l-1.404 -1.944 z M32.724 36.989999999999995 l0.54 0.054 l0.216 -0.81 z M32.454 36.93599999999999 l1.134 -1.026 l0.756 -2.376 l-5.94 2.484 l0.108 0.486 z M34.56 33.426 l-0.702 2.268 l4.05 -3.672 z M34.614 33.209999999999994 l3.618 -1.512 l-2.106 -3.294 z M35.748 20.519999999999996 l0.054 0 l-0.054 -0.378 l0 0.378 z M35.586 20.25 l0.054 -4.266 l-2.052 1.458 z M35.532 20.465999999999994 l-2.106 -2.916 l-6.048 4.158 z M27.27 21.599999999999994 l6.048 -4.212 l-2.376 -3.402 z M26.784 21.113999999999997 l3.672 -6.642 l-4.482 4.914 z M26.676 21.275999999999996 l-0.81 -1.728 l-0.648 0.648 l1.404 1.188 z M26.514 21.546 l-1.404 -1.188 l-1.296 1.404 l0.432 0.648 l2.106 -0.486 z M23.706 21.653999999999996 l1.296 -1.404 l-2.484 -2.106 l0.108 1.998 z M22.464 19.872 l-0.108 -1.89 l-2.97 -2.538 z M19.116 15.012 l3.186 2.7 l-0.162 -2.97 z M19.116 14.849999999999994 l2.97 -0.27 l-0.216 -3.348 z M12.798 15.39 l5.346 -0.432 l-5.454 -0.756 z M7.83 15.821999999999996 l4.59 -1.782 l-4.104 -2.754 z M7.668 15.821999999999996 l0.486 -4.482 l-3.456 2.538 z M7.506 15.93 l-2.97 -1.944 l-3.996 2.916 z M7.506 16.092 l-7.128 0.972 l2.862 4.428 z M7.56 16.361999999999995 l-4.212 5.238 l1.944 2.97 z M0.324 31.266 l4.806 -6.372 l-4.86 0.594 z M1.998 40.769999999999996 l-1.674 -3.78 l-0.162 4.86 z M2.052 40.932 l-1.782 1.08 l2.646 0.918 z M7.074 53.675999999999995 l-3.996 -10.368 l-2.808 7.992 z M4.59 55.836 l-4.374 -4.266 l0.108 7.614 z M7.56 59.022 l-7.182 0.432 l0.054 4.968 z M7.83 59.022 l-7.236 5.508 l10.908 0.216 z M20.682 58.967999999999996 l-8.694 5.778 l13.986 -0.486 z M29.052 58.211999999999996 l-2.7 5.994 l8.1 -2.754 z M35.37 48.708 l-6.102 9.18 l10.314 -3.618 z M36.18 45.467999999999996 l-0.648 2.862 l3.51 -2.862 l-2.862 0 z M36.936 41.958 l2.052 2.808 l-1.728 -4.212 z M34.992 39.312 l1.782 0.648 l-3.024 -2.376 z M33.75 36.018 l-0.216 0.756 l3.348 -3.564 z M36.18 28.187999999999995 l1.998 3.078 l-0.972 -3.996 z M36.18 27.971999999999994 l0.972 -0.918 l-1.134 -4.752 z M35.964 21.437999999999995 l1.35 5.454 l2.106 -1.998 l-3.456 -3.888 l0 0.432 z M35.964 20.735999999999997 l3.294 3.726 l-3.402 -8.154 z M33.48 17.279999999999994 l2.052 -1.404 l-4.374 -1.836 z M25.92 19.223999999999997 l4.752 -5.292 l-6.912 0.648 z M25.758 19.385999999999996 l-2.214 -4.752 l-1.242 0.108 l0.216 3.132 l2.592 2.214 z M22.302 14.579999999999998 l1.188 -0.162 l-1.404 -2.916 z M18.9 14.849999999999994 l2.808 -3.672 l-6.804 2.268 z M18.09 14.741999999999997 l-3.456 -1.242 l-1.62 0.54 z M12.636 13.985999999999997 l1.728 -0.594 l-5.454 -1.944 z M4.536 13.769999999999996 l3.456 -2.538 l-7.29 0 z M4.374 13.878 l-3.888 -2.592 l-0.162 5.562 z M3.132 21.599999999999994 l-2.862 -4.266 l0 7.83 z M3.24 21.762 l-2.808 3.564 l4.752 -0.594 z M2.97 43.146 l-2.808 -1.026 l0.054 8.748 z M34.668 61.343999999999994 l4.86 -6.858 l-10.314 3.618 z M39.636 54.053999999999995 l-0.378 -8.532 l-3.78 3.024 z M38.34 31.266 l1.08 -6.102 l-2.052 1.944 z M30.456 13.769999999999996 l-8.316 -2.592 l1.512 3.24 z M21.384 11.123999999999995 l-12.636 0.108 l5.886 2.106 z"/></g>
            </svg>
			</g>
		</svg>
    